<?xml version="1.0" standalone="no"?>
<!DOCTYPE svg PUBLIC "-//W3C//DTD SVG 20010904//EN"
 "http://www.w3.org/TR/2001/REC-SVG-20010904/DTD/svg10.dtd">
<svg version="1.0" xmlns="http://www.w3.org/2000/svg"
 width="443.000000pt" height="399.000000pt" viewBox="0 0 443.000000 399.000000"
 preserveAspectRatio="xMidYMid meet">

<g transform="translate(0.000000,399.000000) scale(0.100000,-0.100000)"
fill="#000000" stroke="none">
<path d="M0 1995 l0 -1995 2215 0 2215 0 0 1995 0 1995 -2215 0 -2215 0 0
-1995z m1076 28 c-25 -87 -76 -304 -76 -326 0 -19 10 -39 31 -58 28 -27 37
-29 104 -29 110 0 115 6 170 220 25 96 48 183 51 193 5 15 20 17 140 17 101 0
134 -3 134 -12 0 -7 -27 -116 -59 -241 -65 -250 -81 -286 -155 -336 -61 -42
-108 -51 -281 -51 -224 0 -340 32 -395 110 -43 60 -43 81 1 255 22 88 44 174
49 190 4 17 11 42 14 58 l6 27 136 0 c124 0 135 -1 130 -17z m1013 -143 c63
-83 116 -149 118 -146 3 2 21 69 41 148 l37 143 128 3 c70 1 127 0 127 -3 0
-21 -114 -457 -127 -488 -22 -51 -92 -113 -143 -127 -22 -6 -64 -10 -92 -8
l-52 3 -111 162 c-60 89 -112 162 -115 162 -3 1 -12 -27 -19 -61 -33 -150 -90
-233 -177 -257 -45 -12 -144 -15 -144 -3 -1 4 34 145 77 315 l77 307 131 0
130 0 114 -150z m787 133 c-3 -10 -30 -119 -61 -243 -31 -124 -65 -239 -76
-257 -29 -46 -83 -90 -126 -102 -44 -12 -143 -15 -143 -3 0 4 35 145 77 314
l78 308 128 0 c118 0 128 -1 123 -17z m830 -17 c43 -43 44 -80 8 -220 -51
-193 -38 -186 -353 -186 l-240 0 -13 -42 c-14 -49 -74 -113 -124 -134 -18 -8
-66 -14 -106 -14 l-74 0 80 315 79 315 354 0 355 0 34 -34z"/>
<path d="M3186 1843 c-9 -37 -19 -76 -22 -85 -5 -16 5 -18 109 -18 128 0 136
4 156 75 9 34 8 44 -8 65 -17 23 -25 25 -118 28 l-100 3 -17 -68z"/>
</g>
</svg>
